<?xml version="1.0" standalone="no"?>
<!DOCTYPE svg PUBLIC "-//W3C//DTD SVG 20010904//EN"
 "http://www.w3.org/TR/2001/REC-SVG-20010904/DTD/svg10.dtd">
<svg version="1.0" xmlns="http://www.w3.org/2000/svg"
 width="866.000000pt" height="650.000000pt" viewBox="0 0 866.000000 650.000000"
 preserveAspectRatio="xMidYMid meet">

<g transform="translate(0.000000,650.000000) scale(0.100000,-0.100000)"
fill="#000000" stroke="none">
<path d="M2687 5129 c-94 -22 -173 -87 -216 -179 -20 -44 -25 -70 -25 -130 1
-137 -33 -97 740 -870 381 -382 694 -699 694 -703 0 -4 -311 -319 -691 -700
-775 -775 -743 -738 -743 -877 0 -89 22 -145 80 -210 85 -94 225 -125 351 -79
55 20 95 58 758 720 l700 699 695 -695 c773 -772 741 -745 872 -745 126 0 232
64 288 176 35 70 36 196 1 269 -19 40 -168 194 -717 745 l-693 695 693 696
c530 533 698 708 717 745 19 40 24 65 24 134 0 73 -4 93 -28 142 -31 64 -85
115 -156 149 -35 17 -64 23 -121 23 -146 1 -107 34 -880 -744 -377 -380 -690
-690 -695 -690 -6 0 -316 306 -690 681 -374 374 -698 692 -720 706 -70 46
-157 61 -238 42z"/>
</g>
</svg>
