<svg width="48" height="48" viewBox="0 0 48 48" xmlns="http://www.w3.org/2000/svg"><g data-name="Layer 2"><path fill="none" data-name="invisible box" d="M0 0h48v48H0z"/><path d="m43.2 12.3-5-6.7A4 4 0 0 0 35 4H13a4 4 0 0 0-3.2 1.6l-5 6.7a4.1 4.1 0 0 0-.8 2.4V40a4 4 0 0 0 4 4h32a4 4 0 0 0 4-4V14.7a4.1 4.1 0 0 0-.8-2.4M13 8h22l4.5 6h-31Zm27 32H26V28.8l2.6 2.6a1.9 1.9 0 0 0 3-.2 2.1 2.1 0 0 0-.2-2.7l-6-5.9a1.9 1.9 0 0 0-2.8 0l-6 5.9a2.1 2.1 0 0 0-.2 2.7 1.9 1.9 0 0 0 3 .2l2.6-2.6V40H8V18h32Z" data-name="icons Q2"/></g></svg>