<?xml version="1.0" standalone="no"?>
<!DOCTYPE svg PUBLIC "-//W3C//DTD SVG 20010904//EN"
 "http://www.w3.org/TR/2001/REC-SVG-20010904/DTD/svg10.dtd">
<svg version="1.0" xmlns="http://www.w3.org/2000/svg"
 width="980.000000pt" height="978.000000pt" viewBox="0 0 980.000000 978.000000"
 preserveAspectRatio="xMidYMid meet">

<g transform="translate(0.000000,978.000000) scale(0.100000,-0.100000)"
fill="#000000" stroke="none">
<path d="M3590 9750 c-247 -64 -446 -243 -525 -471 l-30 -84 -3 -407 -3 -408
-1387 -2 -1387 -3 -63 -34 c-75 -41 -125 -94 -161 -170 -22 -47 -26 -70 -26
-141 0 -71 4 -94 26 -141 36 -76 86 -129 161 -170 l63 -34 447 -3 448 -3 2
-3537 c3 -3342 4 -3540 21 -3597 9 -33 36 -98 59 -145 69 -141 214 -270 378
-337 139 -56 -64 -53 3306 -53 3073 0 3112 0 3190 20 233 59 434 227 515 432
52 131 49 -61 49 3708 l0 3509 438 3 c436 3 437 3 484 26 75 38 134 96 170
170 30 59 33 76 33 152 0 76 -3 93 -33 152 -36 74 -95 132 -170 170 l-47 23
-1377 3 -1377 2 -3 408 c-4 393 -4 409 -27 477 -33 102 -84 187 -158 266 -108
114 -227 183 -378 220 -77 18 -129 19 -1320 18 -1192 0 -1243 -1 -1315 -19z
m2448 -1023 l2 -347 -1127 2 -1128 3 -3 335 c-1 184 0 341 3 347 3 11 231 13
1127 11 l1123 -3 3 -348z m1877 -4537 l0 -3485 -3002 -3 -3003 -2 0 3490 0
3490 3003 -2 3002 -3 0 -3485z"/>
<path d="M3283 6626 c-88 -28 -163 -94 -210 -186 l-28 -55 0 -2125 0 -2125 26
-56 c37 -79 90 -133 167 -171 61 -30 75 -33 157 -33 79 1 97 4 148 30 68 34
140 107 170 173 l22 47 0 2130 0 2130 -28 57 c-36 73 -119 150 -192 177 -64
24 -167 27 -232 7z"/>
<path d="M4793 6626 c-89 -29 -176 -107 -216 -194 l-22 -47 0 -2130 0 -2130
28 -55 c59 -115 164 -187 286 -197 151 -13 282 64 353 206 l23 46 0 2130 0
2130 -22 47 c-30 66 -105 143 -171 175 -66 32 -190 42 -259 19z"/>
<path d="M6279 6617 c-104 -44 -165 -107 -205 -212 -18 -49 -19 -109 -19
-2155 l0 -2105 31 -65 c59 -122 166 -199 293 -208 127 -9 243 46 313 149 73
106 68 -56 68 2234 0 1678 -3 2070 -14 2116 -25 108 -85 183 -189 236 -76 39
-199 43 -278 10z"/>
</g>
</svg>
