<?xml version="1.0" standalone="no"?>
<!DOCTYPE svg PUBLIC "-//W3C//DTD SVG 20010904//EN"
 "http://www.w3.org/TR/2001/REC-SVG-20010904/DTD/svg10.dtd">
<svg version="1.0" xmlns="http://www.w3.org/2000/svg"
 width="920.000000pt" height="512.000000pt" viewBox="0 0 920.000000 512.000000"
 preserveAspectRatio="xMidYMid meet">

<g transform="translate(0.000000,512.000000) scale(0.100000,-0.100000)"
fill="#000000" stroke="none">
<path d="M2378 4190 c-162 -28 -297 -165 -328 -332 -7 -36 -10 -497 -8 -1334
l3 -1279 23 -57 c44 -109 131 -196 240 -240 l57 -23 2235 0 2235 0 58 23 c110
45 194 130 239 241 l23 56 0 1315 0 1315 -23 57 c-44 109 -131 196 -240 240
l-57 23 -2205 1 c-1213 1 -2226 -2 -2252 -6z m4256 -209 c-13 -12 -263 -229
-794 -691 -256 -222 -637 -554 -847 -737 -211 -183 -387 -333 -393 -333 -10 0
-2033 1755 -2038 1768 -1 4 917 6 2040 4 1136 -1 2038 -6 2032 -11z m-3547
-727 c428 -372 782 -681 788 -686 6 -5 -9 -24 -40 -51 -27 -23 -382 -331 -788
-685 -577 -502 -741 -641 -752 -632 -7 6 -21 28 -32 48 -17 35 -18 96 -21
1282 -2 835 1 1261 8 1294 9 42 43 106 56 106 2 0 354 -304 781 -676z m3832
648 c11 -16 25 -49 30 -73 14 -61 15 -2471 1 -2536 -6 -27 -21 -61 -34 -77
l-23 -29 -464 404 c-255 223 -608 530 -784 683 -176 153 -320 282 -320 286 0
4 227 205 504 446 278 242 629 548 780 681 152 133 279 242 283 242 4 1 16
-12 27 -27z m-2554 -1756 c127 -108 232 -196 235 -196 3 0 128 105 279 233
l274 234 581 -502 c320 -275 653 -563 741 -639 88 -76 161 -141 163 -144 1 -4
-917 -6 -2040 -4 l-2043 3 35 29 c19 16 355 305 745 643 l710 613 45 -37 c25
-20 149 -125 275 -233z"/>
</g>
</svg>
