<?xml version="1.0" encoding="UTF-8"?>
<!DOCTYPE svg PUBLIC "-//W3C//DTD SVG 1.1//EN" "http://www.w3.org/Graphics/SVG/1.1/DTD/svg11.dtd">
<svg xmlns="http://www.w3.org/2000/svg" version="1.1" width="376px" height="301px" style="shape-rendering:geometricPrecision; text-rendering:geometricPrecision; image-rendering:optimizeQuality; fill-rule:evenodd; clip-rule:evenodd" xmlns:xlink="http://www.w3.org/1999/xlink">
<g><path style="opacity:0.997" fill="#2d2d2d" d="M 375.5,23.5 C 375.5,108.167 375.5,192.833 375.5,277.5C 371.5,288.833 363.833,296.5 352.5,300.5C 242.833,300.5 133.167,300.5 23.5,300.5C 12.184,296.683 4.68399,289.016 1,277.5C 0.333333,192.833 0.333333,108.167 1,23.5C 4.5,12 12,4.5 23.5,1C 133.167,0.333333 242.833,0.333333 352.5,1C 364.016,4.68399 371.683,12.184 375.5,23.5 Z M 31.5,25.5 C 136.89,25.0065 242.223,25.5065 347.5,27C 348.893,28.1711 349.727,29.6711 350,31.5C 350.991,111.89 350.658,192.224 349,272.5C 347.829,273.893 346.329,274.727 344.5,275C 239.11,275.993 133.777,275.66 28.5,274C 27.1068,272.829 26.2735,271.329 26,269.5C 25.3333,190.167 25.3333,110.833 26,31.5C 26.6831,28.3212 28.5164,26.3212 31.5,25.5 Z"/></g>
<g><path style="opacity:0.979" fill="#2d2d2d" d="M 86.5,49.5 C 110.644,51.2094 123.644,64.0428 125.5,88C 123.851,111.317 111.351,124.15 88,126.5C 64.6438,124.231 51.8105,111.398 49.5,88C 51.5759,65.0938 63.9092,52.2605 86.5,49.5 Z"/></g>
<g><path style="opacity:0.993" fill="#2c2c2c" d="M 242.5,81.5 C 243.552,81.3505 244.552,81.5172 245.5,82C 272.333,108.833 299.167,135.667 326,162.5C 326.5,191.831 326.667,221.165 326.5,250.5C 234.167,250.5 141.833,250.5 49.5,250.5C 49.3334,237.829 49.5001,225.162 50,212.5C 70.5,192 91,171.5 111.5,151C 112.5,150.333 113.5,150.333 114.5,151C 124.167,160.667 133.833,170.333 143.5,180C 144.167,180.667 144.833,180.667 145.5,180C 178.397,147.604 210.731,114.77 242.5,81.5 Z"/></g>
</svg>
