<?xml version="1.0" standalone="no"?>
<!DOCTYPE svg PUBLIC "-//W3C//DTD SVG 20010904//EN"
 "http://www.w3.org/TR/2001/REC-SVG-20010904/DTD/svg10.dtd">
<svg version="1.0" xmlns="http://www.w3.org/2000/svg"
 width="283.000000pt" height="283.000000pt" viewBox="0 0 283.000000 283.000000"
 preserveAspectRatio="xMidYMid meet">

<g transform="translate(0.000000,283.000000) scale(0.100000,-0.100000)"
fill="#000000" stroke="none">
<path d="M1245 2645 c-327 -47 -600 -203 -807 -460 -199 -248 -298 -578 -267
-890 32 -321 166 -592 400 -809 241 -223 549 -336 884 -323 210 8 336 38 500
119 344 170 573 452 672 830 25 95 27 119 27 293 1 234 -22 344 -108 529 -85
185 -261 393 -426 503 -268 180 -572 252 -875 208z m411 -95 c297 -62 561
-242 729 -496 144 -217 204 -437 192 -703 -10 -220 -77 -424 -198 -602 -55
-81 -185 -217 -269 -280 -110 -83 -281 -163 -420 -198 -199 -49 -444 -39 -639
25 -285 95 -548 319 -678 579 -85 170 -114 291 -120 500 -5 156 -3 179 21 283
142 630 754 1025 1382 892z"/>
<path d="M1020 2084 c-147 -40 -256 -158 -289 -312 -7 -33 -11 -174 -11 -370
1 -328 6 -384 45 -466 31 -65 111 -143 183 -178 l67 -33 400 0 400 0 58 28
c76 38 156 117 193 192 l29 60 0 400 0 400 -33 67 c-55 111 -157 191 -280 217
-84 17 -692 14 -762 -5z m774 -145 c66 -24 140 -100 156 -160 7 -26 10 -165 8
-392 l-3 -352 -28 -47 c-15 -26 -43 -59 -62 -74 -67 -51 -84 -53 -455 -53
-342 -1 -345 -1 -396 23 -27 13 -67 43 -87 67 -63 73 -67 102 -67 461 0 286 2
323 19 367 28 75 66 118 135 151 l61 29 332 1 c311 0 336 -1 387 -21z"/>
<path d="M1733 1856 c-61 -27 -72 -98 -24 -147 56 -56 145 -27 157 52 5 30 2
41 -22 67 -35 38 -69 46 -111 28z"/>
<path d="M1314 1710 c-151 -49 -246 -211 -214 -363 14 -70 74 -164 127 -199
213 -140 484 -12 501 238 3 51 0 86 -13 123 -54 163 -237 255 -401 201z m146
-136 c46 -10 106 -70 119 -121 18 -67 1 -120 -54 -170 -45 -41 -50 -43 -109
-43 -54 0 -69 4 -103 29 -81 58 -95 174 -30 248 49 56 100 72 177 57z"/>
</g>
</svg>
