<?xml version="1.0" standalone="no"?>
<!DOCTYPE svg PUBLIC "-//W3C//DTD SVG 20010904//EN"
 "http://www.w3.org/TR/2001/REC-SVG-20010904/DTD/svg10.dtd">
<svg version="1.0" xmlns="http://www.w3.org/2000/svg"
 width="292.000000pt" height="292.000000pt" viewBox="0 0 292.000000 292.000000"
 preserveAspectRatio="xMidYMid meet">

<g transform="translate(0.000000,292.000000) scale(0.100000,-0.100000)"
fill="#000000" stroke="none">
<path d="M1355 2694 c-89 -10 -240 -47 -322 -80 -180 -72 -302 -152 -428 -279
-194 -194 -308 -415 -355 -689 -15 -87 -12 -328 5 -424 87 -493 475 -887 982
-999 121 -26 399 -23 518 6 124 30 194 56 302 112 320 165 545 450 638 805 36
138 45 357 20 504 -87 523 -477 924 -995 1026 -77 15 -293 25 -365 18z m363
-99 c388 -82 703 -348 855 -722 56 -139 71 -224 72 -418 0 -156 -3 -192 -23
-268 -62 -238 -153 -400 -321 -568 -168 -167 -337 -257 -601 -320 -35 -9 -116
-13 -220 -13 -145 0 -177 4 -266 27 -55 14 -125 36 -155 47 -374 148 -648 479
-724 875 -20 104 -20 325 0 428 97 508 514 893 1030 951 72 8 278 -3 353 -19z"/>
<path d="M1083 2069 c-50 -15 -83 -61 -83 -119 0 -43 5 -54 35 -85 31 -30 42
-35 84 -35 144 0 174 188 38 239 -32 12 -31 12 -74 0z"/>
<path d="M1402 1752 c-9 -6 -14 -91 -18 -348 -3 -186 -2 -365 1 -397 l7 -58
117 3 116 3 5 260 c6 291 8 303 75 331 46 19 74 18 112 -6 66 -40 67 -47 73
-330 l5 -255 115 0 115 0 0 275 c0 241 -2 282 -18 330 -44 128 -129 189 -264
190 -59 0 -148 -30 -181 -60 -31 -29 -49 -25 -56 14 -4 19 -12 38 -19 44 -15
12 -167 15 -185 4z"/>
<path d="M1009 1728 c-1 -6 -1 -82 0 -425 l1 -353 110 0 110 0 0 390 0 390
-110 0 c-60 0 -110 -1 -111 -2z"/>
</g>
</svg>
