<?xml version="1.0" standalone="no"?>
<!DOCTYPE svg PUBLIC "-//W3C//DTD SVG 20010904//EN"
 "http://www.w3.org/TR/2001/REC-SVG-20010904/DTD/svg10.dtd">
<svg version="1.0" xmlns="http://www.w3.org/2000/svg"
 width="200.000000pt" height="252.000000pt" viewBox="0 0 200.000000 252.000000"
 preserveAspectRatio="xMidYMid meet">

<g transform="translate(0.000000,252.000000) scale(0.100000,-0.100000)"
fill="#000000" stroke="none">
<path d="M834 2406 c-194 -44 -382 -181 -483 -350 -63 -106 -93 -207 -98 -338
-5 -108 -4 -124 22 -205 77 -248 320 -643 627 -1020 68 -84 89 -99 117 -83 37
19 258 306 398 515 160 240 245 401 300 563 34 103 35 110 31 222 -9 201 -71
342 -213 486 -91 92 -183 150 -300 190 -68 23 -100 28 -210 30 -85 2 -151 -1
-191 -10z m376 -123 c250 -86 421 -306 437 -562 4 -63 1 -104 -11 -151 -36
-139 -141 -341 -300 -579 -97 -144 -325 -451 -335 -451 -8 1 -160 200 -256
335 -173 243 -317 496 -364 640 -48 147 -35 288 39 444 79 164 258 305 440
346 104 23 246 15 350 -22z"/>
<path d="M907 2026 c-136 -51 -215 -172 -205 -315 12 -166 140 -285 308 -285
95 -1 168 32 234 105 59 65 80 129 74 223 -8 113 -61 197 -160 251 -43 24 -67
29 -133 32 -52 2 -93 -2 -118 -11z m188 -105 c74 -33 125 -113 125 -197 0 -48
-46 -128 -92 -160 -37 -26 -50 -29 -118 -29 -65 0 -82 4 -112 25 -112 76 -127
222 -32 317 63 63 151 80 229 44z"/>
<path d="M570 646 c-154 -40 -270 -108 -306 -177 -7 -15 -14 -50 -14 -77 0
-134 172 -231 494 -278 140 -20 455 -15 591 11 262 49 415 147 415 267 0 59
-17 94 -67 138 -88 78 -321 153 -372 121 -16 -10 -18 -58 -4 -72 6 -6 45 -19
87 -30 139 -36 256 -104 256 -149 0 -65 -140 -135 -355 -177 -128 -25 -464
-25 -589 0 -196 40 -330 100 -350 159 -9 24 -6 32 20 59 37 39 129 83 219 105
39 9 80 23 93 30 29 19 29 58 0 78 -27 19 -15 20 -118 -8z"/>
</g>
</svg>
