<svg width="48" height="48" viewBox="0 0 48 48" xmlns="http://www.w3.org/2000/svg"><path d="M30.674 11a7 7 0 0 0-.656 2.5H11.25a2.75 2.75 0 0 0-2.75 2.75v.592l14.5 8.7 9.846-5.907a7 7 0 0 0 2.801 1.234l-12.004 7.203a1.25 1.25 0 0 1-1.15.07l-.136-.07L8.5 19.757V32.75c0 .966.784 1.75 1.75 1.75h25.5a1.75 1.75 0 0 0 1.75-1.75V20.982a7 7 0 0 0 2.5-.656V32.75A4.25 4.25 0 0 1 35.75 37h-25.5A4.25 4.25 0 0 1 6 32.75l-.001-15.114a1 1 0 0 1 0-.167L6 16.25C6 13.35 8.35 11 11.25 11zM37 9a5 5 0 1 1 0 10 5 5 0 0 1 0-10" fill="#212121"/></svg>