<?xml version="1.0" standalone="no"?>
<!DOCTYPE svg PUBLIC "-//W3C//DTD SVG 20010904//EN"
 "http://www.w3.org/TR/2001/REC-SVG-20010904/DTD/svg10.dtd">
<svg version="1.0" xmlns="http://www.w3.org/2000/svg"
 width="320.000000pt" height="239.000000pt" viewBox="0 0 320.000000 239.000000"
 preserveAspectRatio="xMidYMid meet">

<g transform="translate(0.000000,239.000000) scale(0.100000,-0.100000)"
fill="#000000" stroke="none">
<path d="M785 2020 l-60 -60 144 -144 143 -143 -103 -68 c-172 -112 -327 -247
-472 -410 l-89 -100 49 -44 c166 -152 431 -314 661 -405 170 -67 315 -97 498
-103 178 -6 273 3 424 43 l95 25 154 -156 155 -155 63 62 63 63 -126 126 -127
127 109 55 c158 79 352 211 473 320 l42 38 -27 37 c-55 73 -311 319 -411 395
-280 209 -518 305 -781 315 -157 6 -247 -7 -384 -52 l-97 -33 -163 164 c-89
90 -165 163 -168 163 -3 0 -32 -27 -65 -60z m948 -295 c173 -36 323 -165 394
-338 32 -76 43 -228 23 -315 -13 -61 -48 -145 -73 -177 -16 -19 -18 -18 -82
45 l-66 66 23 49 c18 39 23 68 23 132 0 45 -3 85 -8 89 -4 4 -17 -2 -30 -14
-70 -66 -173 -68 -240 -4 -41 39 -57 74 -57 127 0 52 10 77 49 118 22 24 23
29 11 38 -26 18 -180 5 -226 -19 l-41 -21 -68 69 -67 68 44 26 c119 70 252 91
391 61z m-489 -284 c42 -43 57 -65 53 -78 -3 -10 -13 -38 -22 -63 -27 -72 -17
-199 20 -273 34 -69 107 -140 172 -169 75 -33 186 -36 274 -8 l71 23 60 -60
c38 -38 58 -65 53 -73 -14 -23 -147 -79 -218 -90 -283 -48 -550 132 -623 420
-30 117 -6 278 57 390 13 22 28 40 34 40 6 0 37 -27 69 -59z"/>
</g>
</svg>
