<?xml version="1.0" standalone="no"?>
<!DOCTYPE svg PUBLIC "-//W3C//DTD SVG 20010904//EN"
 "http://www.w3.org/TR/2001/REC-SVG-20010904/DTD/svg10.dtd">
<svg version="1.0" xmlns="http://www.w3.org/2000/svg"
 width="316.000000pt" height="237.000000pt" viewBox="0 0 316.000000 237.000000"
 preserveAspectRatio="xMidYMid meet">

<g transform="translate(0.000000,237.000000) scale(0.100000,-0.100000)"
fill="#000000" stroke="none">
<path d="M1485 1839 c-350 -30 -756 -270 -1087 -643 -102 -116 -105 -96 32
-206 299 -238 641 -396 958 -441 117 -16 371 -6 489 20 283 62 605 224 855
428 122 100 119 88 45 174 -82 95 -230 238 -332 319 -328 261 -644 376 -960
349z m214 -114 c133 -32 257 -119 335 -236 56 -85 79 -159 84 -276 5 -120 -17
-210 -74 -304 -40 -66 -147 -170 -206 -200 -226 -115 -471 -79 -643 95 -112
113 -165 237 -165 390 0 145 55 273 164 382 140 139 320 192 505 149z"/>
<path d="M1443 1529 c-65 -25 -150 -101 -185 -166 -97 -179 -30 -394 154 -494
60 -32 68 -34 163 -34 91 0 105 3 158 29 71 37 140 109 175 184 21 47 26 72
27 139 0 45 -3 84 -7 88 -3 4 -25 -7 -48 -24 -74 -54 -154 -53 -216 1 -47 41
-64 77 -64 135 0 49 25 105 58 131 15 11 15 14 2 22 -27 18 -161 10 -217 -11z"/>
</g>
</svg>
