<?xml version="1.0" standalone="no"?>
<!DOCTYPE svg PUBLIC "-//W3C//DTD SVG 20010904//EN"
 "http://www.w3.org/TR/2001/REC-SVG-20010904/DTD/svg10.dtd">
<svg version="1.0" xmlns="http://www.w3.org/2000/svg"
 width="512.000000pt" height="512.000000pt" viewBox="0 0 512.000000 512.000000"
 preserveAspectRatio="xMidYMid meet">

<g transform="translate(0.000000,512.000000) scale(0.100000,-0.100000)"
fill="#000000" stroke="none">
<path d="M1190 4764 c-58 -25 -222 -95 -365 -155 -142 -60 -275 -122 -293
-136 -19 -14 -56 -59 -82 -100 -228 -349 -173 -862 162 -1493 422 -794 1262
-1667 2078 -2159 561 -338 1058 -471 1427 -381 142 34 302 120 357 193 14 18
75 150 135 292 60 143 130 307 155 365 51 118 55 146 25 206 -19 40 -43 56
-512 335 -271 161 -511 299 -535 307 -57 19 -53 21 -453 -193 -180 -97 -344
-179 -364 -182 -80 -13 -83 -10 -681 589 -596 598 -594 595 -581 675 3 19 86
183 183 364 97 182 183 348 190 370 8 21 11 52 7 69 -6 34 -570 989 -606 1029
-27 29 -77 51 -114 51 -15 0 -75 -21 -133 -46z m177 -76 c38 -43 576 -960 576
-983 0 -12 -76 -162 -167 -334 -220 -410 -220 -409 -213 -481 3 -36 15 -77 32
-108 36 -67 1131 -1161 1193 -1191 54 -28 126 -36 176 -22 22 5 196 94 388
197 220 117 355 184 365 180 31 -12 948 -559 971 -579 12 -11 22 -27 22 -34 0
-13 -276 -666 -305 -724 -16 -30 -115 -101 -182 -131 -363 -161 -929 -24
-1562 376 -500 318 -994 762 -1433 1293 -406 489 -697 1029 -789 1463 -30 138
-33 381 -6 480 20 77 95 231 134 278 23 27 92 60 388 187 198 85 367 154 376
155 8 0 25 -10 36 -22z"/>
</g>
</svg>
