<?xml version="1.0" standalone="no"?>
<!DOCTYPE svg PUBLIC "-//W3C//DTD SVG 20010904//EN"
 "http://www.w3.org/TR/2001/REC-SVG-20010904/DTD/svg10.dtd">
<svg version="1.0" xmlns="http://www.w3.org/2000/svg"
 width="289.000000pt" height="274.000000pt" viewBox="0 0 289.000000 274.000000"
 preserveAspectRatio="xMidYMid meet">

<g transform="translate(0.000000,274.000000) scale(0.100000,-0.100000)"
fill="#000000" stroke="none">
<path d="M1305 2564 c-569 -87 -1005 -553 -1054 -1128 -48 -561 283 -1081 813
-1280 137 -52 256 -71 441 -71 152 1 181 4 277 28 499 129 857 511 942 1006
27 153 20 355 -15 501 -97 394 -379 721 -749 869 -209 83 -434 109 -655 75z
m438 -94 c464 -102 811 -464 903 -940 18 -96 18 -292 0 -395 -89 -499 -475
-880 -972 -959 -307 -49 -630 30 -874 213 -82 62 -224 208 -273 283 -152 231
-226 514 -197 760 33 292 133 507 328 710 193 200 413 308 717 352 70 10 274
-3 368 -24z"/>
<path d="M1320 1686 c-342 -138 -566 -233 -582 -249 -40 -35 -40 -104 0 -142
23 -23 265 -155 283 -155 4 0 40 20 80 43 101 60 324 189 379 219 25 14 69 40
99 57 29 18 58 30 63 29 5 -2 -42 -53 -104 -113 -265 -255 -338 -328 -342
-344 -6 -17 -20 -108 -37 -234 -10 -83 -4 -107 30 -107 9 0 53 27 99 60 46 33
89 60 97 60 7 0 52 -47 99 -105 97 -117 118 -135 159 -135 35 0 83 24 96 48 9
16 102 400 122 499 4 23 18 82 29 130 12 48 27 115 35 148 8 33 27 116 43 185
57 238 55 228 42 261 -18 42 -56 69 -99 69 -23 -1 -233 -80 -591 -224z"/>
</g>
</svg>
