<?xml version="1.0" standalone="no"?>
<!DOCTYPE svg PUBLIC "-//W3C//DTD SVG 20010904//EN"
 "http://www.w3.org/TR/2001/REC-SVG-20010904/DTD/svg10.dtd">
<svg version="1.0" xmlns="http://www.w3.org/2000/svg"
 width="461.000000pt" height="459.000000pt" viewBox="0 0 461.000000 459.000000"
 preserveAspectRatio="xMidYMid meet">

<g transform="translate(0.000000,459.000000) scale(0.100000,-0.100000)"
fill="#000000" stroke="none">
<path d="M2040 3424 c-184 -39 -335 -106 -473 -210 -366 -275 -531 -748 -416
-1196 89 -352 363 -656 700 -779 297 -108 608 -96 886 36 130 61 227 131 332
240 129 133 199 247 260 419 28 80 65 246 56 254 -2 2 -34 -14 -72 -37 -139
-82 -283 -121 -449 -121 -246 0 -458 87 -628 256 -264 264 -334 664 -176 1000
21 47 48 97 59 113 12 16 21 32 21 35 0 9 -27 6 -100 -10z"/>
</g>
</svg>
