<?xml version="1.0" standalone="no"?>
<!DOCTYPE svg PUBLIC "-//W3C//DTD SVG 20010904//EN"
 "http://www.w3.org/TR/2001/REC-SVG-20010904/DTD/svg10.dtd">
<svg version="1.0" xmlns="http://www.w3.org/2000/svg"
 width="467.000000pt" height="466.000000pt" viewBox="0 0 467.000000 466.000000"
 preserveAspectRatio="xMidYMid meet">

<g transform="translate(0.000000,466.000000) scale(0.100000,-0.100000)"
fill="#000000" stroke="none">
<path d="M2280 3761 c-5 -11 -10 -86 -10 -170 0 -149 0 -151 25 -167 32 -21
68 -12 83 21 19 41 16 285 -4 313 -20 29 -79 31 -94 3z"/>
<path d="M1306 3359 c-44 -35 -35 -56 82 -172 81 -81 114 -107 133 -107 31 0
59 28 59 60 0 36 -206 240 -243 240 -2 0 -16 -9 -31 -21z"/>
<path d="M3189 3274 c-60 -59 -111 -116 -115 -126 -10 -31 22 -68 58 -68 27 0
48 16 135 103 76 76 103 110 103 128 0 31 -18 55 -48 64 -20 6 -39 -9 -133
-101z"/>
<path d="M2205 2963 c-11 -2 -54 -15 -95 -30 -281 -96 -460 -385 -420 -680 36
-271 212 -471 477 -544 66 -18 95 -21 188 -16 176 8 301 63 426 187 198 197
244 484 118 739 -79 160 -248 295 -420 336 -59 13 -225 19 -274 8z"/>
<path d="M895 2376 c-11 -8 -18 -26 -18 -46 0 -54 18 -60 182 -60 80 0 151 4
157 8 37 24 36 91 -1 106 -9 3 -81 6 -159 6 -104 0 -147 -4 -161 -14z"/>
<path d="M3427 2372 c-24 -26 -21 -68 5 -86 18 -13 52 -16 165 -16 130 0 145
2 163 20 11 11 20 29 20 40 0 11 -9 29 -20 40 -18 18 -33 20 -168 20 -132 0
-151 -2 -165 -18z"/>
<path d="M1387 1472 c-111 -111 -123 -134 -89 -165 41 -37 70 -23 179 86 108
108 122 136 87 171 -35 36 -64 21 -177 -92z"/>
<path d="M3086 1558 c-9 -12 -16 -29 -16 -37 0 -8 48 -63 107 -122 112 -114
141 -129 177 -93 35 35 21 63 -87 171 -87 87 -108 103 -134 103 -22 0 -37 -7
-47 -22z"/>
<path d="M2287 1232 c-24 -27 -25 -312 -1 -336 22 -22 60 -20 85 5 19 19 20
30 17 171 -3 134 -5 151 -22 164 -27 19 -60 18 -79 -4z"/>
</g>
</svg>
