<?xml version="1.0" standalone="no"?>
<!DOCTYPE svg PUBLIC "-//W3C//DTD SVG 20010904//EN"
 "http://www.w3.org/TR/2001/REC-SVG-20010904/DTD/svg10.dtd">
<svg version="1.0" xmlns="http://www.w3.org/2000/svg"
 width="286.000000pt" height="285.000000pt" viewBox="0 0 286.000000 285.000000"
 preserveAspectRatio="xMidYMid meet">

<g transform="translate(0.000000,285.000000) scale(0.100000,-0.100000)"
fill="#000000" stroke="none">
<path d="M1280 2664 c-117 -21 -152 -29 -233 -55 -232 -76 -433 -215 -587
-407 -271 -336 -346 -791 -200 -1205 122 -345 421 -640 765 -754 165 -55 235
-66 420 -66 167 1 251 14 400 65 383 131 687 458 793 853 6 22 17 63 24 90 9
34 13 114 12 245 0 181 -2 202 -28 293 -33 119 -53 172 -105 274 -167 329
-475 564 -850 649 -64 14 -359 27 -411 18z m425 -104 c261 -66 506 -227 665
-438 91 -121 167 -287 207 -454 25 -103 25 -392 0 -495 -114 -473 -462 -807
-942 -904 -96 -19 -333 -14 -443 10 -123 27 -170 43 -277 96 -164 81 -345 237
-444 384 -88 129 -157 295 -186 448 -19 99 -19 313 -1 418 89 497 486 882 986
956 95 14 345 2 435 -21z"/>
<path d="M920 1941 c-81 -25 -151 -90 -180 -169 -18 -48 -20 -78 -20 -357 0
-297 1 -306 23 -357 24 -54 81 -113 139 -145 31 -17 70 -18 543 -18 573 0 544
-4 631 77 78 72 84 102 84 442 0 230 -3 303 -15 343 -19 65 -85 139 -150 169
l-50 24 -490 -1 c-269 0 -501 -4 -515 -8z m571 -364 c201 -121 204 -123 204
-157 0 -33 -3 -35 -205 -157 -113 -67 -213 -123 -222 -123 -9 0 -24 7 -32 16
-14 13 -16 51 -16 260 0 150 4 253 10 265 6 10 21 19 34 19 13 0 115 -55 227
-123z"/>
</g>
</svg>
