<?xml version="1.0" standalone="no"?>
<!DOCTYPE svg PUBLIC "-//W3C//DTD SVG 20010904//EN"
 "http://www.w3.org/TR/2001/REC-SVG-20010904/DTD/svg10.dtd">
<svg version="1.0" xmlns="http://www.w3.org/2000/svg"
 width="2000.000000pt" height="330.000000pt" viewBox="0 0 2000.000000 330.000000"
 preserveAspectRatio="xMidYMid meet">

<g transform="translate(0.000000,330.000000) scale(0.100000,-0.100000)"
fill="#000000" stroke="none">
<path d="M10244 3220 c-675 -71 -1241 -575 -1383 -1233 -80 -368 -31 -730 145
-1066 105 -201 213 -339 372 -472 124 -105 193 -151 321 -215 367 -183 798
-212 1197 -79 565 187 979 689 1064 1285 17 123 13 350 -9 480 -139 812 -893
1386 -1707 1300z m301 -130 c50 -5 134 -20 189 -32 78 -17 100 -26 107 -42 11
-28 161 -846 157 -861 -2 -7 -77 40 -168 103 -91 63 -358 248 -593 410 -243
168 -424 299 -419 304 16 16 199 77 280 93 166 34 299 41 447 25z m481 -135
c252 -116 509 -356 638 -596 l37 -69 -252 -361 -253 -361 -108 583 c-59 321
-118 641 -131 712 -13 70 -20 127 -15 127 5 0 43 -16 84 -35z m-939 -290 c199
-137 361 -250 360 -251 -8 -8 -1388 -256 -1393 -251 -9 9 76 183 132 270 69
106 166 219 258 299 89 77 254 190 271 186 6 -2 173 -115 372 -253z m703 -483
c124 -85 228 -158 232 -161 6 -6 98 -482 101 -529 1 -20 -38 -83 -157 -252
-88 -124 -161 -227 -163 -229 -7 -9 -538 -99 -548 -93 -10 6 -457 312 -463
317 -2 2 -26 128 -54 282 l-52 279 157 224 156 225 273 51 c150 28 278 48 283
45 6 -3 111 -74 235 -159z m-926 21 c-9 -16 -191 -277 -403 -582 l-385 -554
-19 44 c-28 66 -66 203 -84 304 -30 164 -21 392 23 585 l15 66 432 81 c238 44
434 81 436 82 2 1 -5 -11 -15 -26z m1931 -153 c51 -177 69 -410 44 -586 -10
-76 -54 -262 -63 -272 -6 -5 -850 -161 -854 -157 -1 1 183 264 409 585 l412
582 14 -33 c8 -19 25 -72 38 -119z m-2045 -1059 c66 -365 120 -671 118 -679
-5 -23 -207 86 -329 177 -59 44 -146 122 -194 173 -94 99 -229 293 -220 316 2
7 114 170 247 363 186 267 245 346 250 332 4 -10 61 -317 128 -682z m674 -295
c625 -433 578 -381 398 -435 -249 -74 -501 -80 -764 -20 -61 14 -89 25 -92 37
-8 27 -146 800 -146 818 0 20 -60 60 604 -400z m1261 286 c-125 -241 -336
-462 -561 -588 l-64 -36 -29 19 c-144 93 -659 459 -653 463 4 4 275 55 602
115 327 60 622 114 655 120 117 24 114 30 50 -93z"/>
<path d="M2493 2359 c-39 -17 -73 -36 -76 -42 -3 -7 -72 -185 -155 -397 -285
-733 -279 -718 -341 -780 -65 -65 -111 -78 -201 -56 -197 48 -329 172 -563
528 l-96 147 206 217 c114 119 224 229 246 245 33 24 75 41 165 65 7 2 12 20
12 46 l0 43 -280 0 -280 0 0 -42 c0 -41 1 -42 46 -55 28 -8 55 -24 66 -39 19
-25 19 -28 3 -60 -29 -56 -107 -149 -211 -250 -91 -87 -196 -169 -218 -169
-16 0 -1 410 17 451 20 48 52 69 104 69 48 0 50 2 59 56 l6 39 -307 0 -307 0
6 -39 c9 -54 11 -56 59 -56 50 0 80 -19 105 -63 15 -29 17 -76 20 -467 2 -240
-1 -476 -6 -524 -9 -79 -13 -92 -40 -119 -23 -23 -42 -31 -80 -35 -49 -4 -50
-5 -56 -45 -4 -22 -3 -43 1 -47 4 -4 73 -3 153 2 86 5 206 5 290 0 80 -5 149
-6 153 -2 4 4 5 25 1 48 -7 42 -7 42 -50 42 -36 0 -51 6 -80 33 -34 31 -37 39
-45 112 -4 44 -8 133 -8 197 l-1 118 46 42 c25 24 49 44 53 45 3 2 30 -36 60
-85 251 -403 351 -522 463 -553 51 -13 258 -13 443 2 94 7 186 7 280 1 77 -5
144 -6 149 -2 4 5 5 26 1 48 -6 36 -10 40 -42 45 -53 9 -63 22 -63 84 0 56 27
149 82 281 l30 72 186 0 187 0 39 -93 c46 -108 66 -183 66 -253 0 -63 -13 -80
-70 -91 l-45 -9 -3 -48 -3 -48 38 6 c83 12 325 16 438 8 66 -5 123 -7 126 -3
3 3 4 25 2 47 l-5 42 -49 4 c-84 8 -121 42 -178 161 -27 56 -138 339 -247 629
-142 377 -203 528 -214 528 -8 -1 -47 -14 -87 -31z m65 -505 c35 -97 61 -178
59 -180 -2 -3 -63 -3 -134 -2 l-131 3 67 177 c36 98 68 178 71 178 3 0 33 -79
68 -176z"/>
<path d="M15990 2374 c-179 -38 -348 -170 -429 -335 -60 -123 -82 -219 -83
-364 -1 -227 59 -392 192 -526 60 -61 92 -85 160 -117 107 -51 178 -66 310
-66 114 0 197 14 275 47 262 109 415 355 415 664 0 144 -19 232 -77 353 -84
175 -250 306 -438 345 -87 18 -239 18 -325 -1z m297 -184 c135 -47 233 -163
279 -331 24 -87 24 -271 0 -359 -58 -217 -199 -347 -386 -358 -179 -10 -322
79 -399 249 -40 90 -55 167 -54 294 0 181 42 308 134 410 104 113 266 150 426
95z"/>
<path d="M16976 2381 c-8 -12 -15 -75 -21 -193 l-6 -108 46 0 c42 0 46 2 62
37 34 69 56 78 219 81 l144 3 0 -498 c0 -297 -4 -512 -10 -534 -17 -59 -59
-91 -132 -98 l-63 -6 -3 -48 -3 -48 48 7 c60 10 525 10 576 0 l38 -7 -3 48 -3
48 -64 7 c-76 8 -117 40 -131 104 -5 21 -10 261 -10 532 l0 492 138 0 c160 0
193 -12 219 -80 16 -39 17 -40 64 -40 l48 0 -5 103 c-4 56 -9 125 -13 152 l-6
50 -75 -5 c-114 -8 -906 -6 -982 2 -37 4 -70 4 -72 -1z"/>
<path d="M18760 2375 c-103 -23 -225 -90 -301 -165 -81 -81 -128 -158 -171
-281 -31 -91 -33 -100 -33 -254 0 -138 3 -171 23 -240 47 -162 128 -278 256
-363 262 -175 649 -137 870 86 266 267 271 763 10 1036 -70 74 -161 131 -258
162 -102 33 -293 42 -396 19z m308 -187 c190 -70 304 -289 289 -553 -19 -314
-199 -508 -457 -493 -179 10 -311 125 -377 326 -23 73 -28 291 -9 382 42 196
165 331 329 359 68 12 159 3 225 -21z"/>
<path d="M3340 2347 c0 -51 16 -67 66 -67 38 0 51 -5 75 -31 15 -17 32 -47 36
-67 4 -20 8 -251 8 -512 0 -360 -3 -484 -13 -511 -19 -54 -51 -79 -110 -86
-49 -5 -52 -7 -58 -39 -9 -51 1 -68 34 -59 15 5 200 9 412 10 358 2 390 3 463
23 185 50 339 174 415 333 57 117 76 200 76 339 0 284 -134 511 -369 625 -131
64 -163 67 -622 69 l-413 1 0 -28z m774 -162 c171 -45 289 -150 348 -311 32
-88 32 -292 0 -385 -77 -225 -257 -338 -534 -339 -105 0 -142 10 -154 44 -10
29 -17 732 -9 884 l7 122 142 0 c94 0 161 -5 200 -15z"/>
<path d="M4962 2331 l3 -46 53 -5 c63 -6 108 -42 118 -96 4 -20 4 -88 0 -152
-13 -215 -56 -736 -66 -801 -19 -111 -49 -147 -137 -159 l-48 -7 -3 -49 c-3
-48 -3 -48 25 -43 60 12 314 17 418 8 61 -4 112 -7 115 -6 3 2 4 24 2 49 -4
46 -4 46 -42 46 -22 0 -48 8 -63 20 -43 34 -51 77 -43 239 7 146 31 485 44
614 l7 68 184 -501 184 -501 85 3 86 3 17 45 c51 127 367 937 371 950 9 25 16
-59 43 -466 19 -283 23 -398 15 -418 -11 -31 -62 -56 -114 -56 -32 0 -36 -3
-42 -35 -9 -52 0 -67 38 -61 74 12 302 16 423 7 72 -4 133 -6 137 -2 4 3 4 25
1 49 -6 42 -6 42 -47 42 -52 0 -103 31 -121 73 -31 75 -103 944 -85 1037 12
63 55 100 115 100 48 0 50 1 59 61 l6 36 -252 -4 -253 -4 -28 -107 c-45 -174
-198 -604 -307 -866 -27 -64 -35 -76 -41 -60 -141 349 -306 801 -338 926 l-28
107 -247 4 -247 3 3 -45z"/>
<path d="M6812 2334 l3 -48 55 -10 c89 -18 91 -20 269 -278 173 -251 248 -379
257 -434 3 -25 5 -125 2 -222 -3 -151 -7 -182 -23 -209 -22 -38 -69 -63 -118
-63 -34 0 -35 -1 -39 -46 -2 -25 -1 -47 2 -48 3 -2 64 1 135 6 122 8 327 4
423 -8 l43 -5 -3 48 -3 48 -53 6 c-60 8 -88 28 -109 78 -20 47 -30 371 -14
435 13 51 90 181 241 406 152 225 200 271 303 288 41 7 42 8 45 52 l3 45 -296
0 -296 0 3 -45 3 -45 53 -7 c29 -5 62 -13 73 -18 27 -15 33 -51 14 -96 -16
-40 -236 -384 -245 -384 -10 0 -263 410 -267 433 -7 34 26 56 93 65 l59 7 0
45 0 45 -100 -5 c-149 -7 -350 -6 -438 3 l-78 8 3 -47z"/>
<path d="M12610 2348 c0 -52 16 -68 66 -68 38 0 51 -5 75 -31 15 -17 32 -47
36 -67 4 -20 8 -251 8 -512 0 -360 -3 -484 -13 -511 -19 -54 -51 -79 -110 -86
-49 -5 -52 -7 -58 -39 -9 -51 0 -66 38 -60 74 12 302 16 423 7 72 -4 133 -6
136 -2 3 3 4 25 1 49 -4 41 -5 42 -43 42 -111 0 -138 64 -139 323 l0 127 103
0 c328 1 515 127 558 374 31 182 -38 343 -178 414 -106 55 -130 57 -675 65
l-228 4 0 -29z m694 -168 c122 -38 175 -118 162 -243 -13 -124 -79 -213 -182
-243 -66 -19 -217 -22 -239 -4 -12 10 -15 42 -15 185 0 94 3 206 6 248 l7 77
97 0 c70 0 117 -6 164 -20z"/>
<path d="M13842 2330 l3 -45 52 -5 c61 -6 98 -35 113 -89 6 -22 10 -232 10
-524 0 -518 -1 -529 -48 -571 -12 -10 -44 -21 -74 -25 l-53 -6 -3 -48 -3 -48
48 7 c63 10 444 10 506 0 l47 -7 0 50 0 51 -35 0 c-54 0 -101 24 -122 62 -15
28 -18 65 -21 271 l-4 237 312 0 312 0 -4 -237 c-2 -200 -6 -243 -20 -269 -24
-44 -38 -53 -99 -61 l-54 -8 -3 -48 -3 -48 48 7 c63 10 444 10 506 0 l48 -7
-3 48 -3 48 -46 6 c-61 9 -85 23 -106 62 -17 29 -18 74 -18 542 0 459 2 513
17 541 25 45 45 58 102 64 l51 5 3 45 3 45 -301 0 -301 0 3 -45 3 -45 52 -5
c61 -6 98 -35 113 -89 5 -20 10 -116 10 -213 l0 -178 -310 0 -310 0 1 163 c0
89 4 184 8 210 11 68 45 100 113 107 l53 5 3 45 3 45 -301 0 -301 0 3 -45z"/>
</g>
</svg>
